HIERARCHY
ROOT Hips
{
  OFFSET 1.44925e-005 102.336 -0.101585
  CHANNELS 6 Xposition Yposition Zposition Zrotation Xrotation Yrotation
  JOINT LeftUpLeg
  {
    OFFSET 8.9458 -8.66707 0.101652
    CHANNELS 3 Zrotation Xrotation Yrotation
    JOINT LeftLeg
    {
      OFFSET 0 -44.4227 1.3727
      CHANNELS 3 Zrotation Xrotation Yrotation
      JOINT LeftFoot
      {
        OFFSET -0.253549 -42.0924 -1.46059
        CHANNELS 3 Zrotation Xrotation Yrotation
        JOINT LeftToes
        {
          OFFSET -0.04 -4.41509 8.4991
          CHANNELS 3 Zrotation Xrotation Yrotation
          End Site
          {
            OFFSET 0.08 -0.047448 9.77979
          }
        }
      }
    }
  }
  JOINT Spine
  {
    OFFSET 0 11.8905 0
    CHANNELS 3 Zrotation Xrotation Yrotation
    JOINT Spine1
    {
      OFFSET 0 25.6574 0.127663
      CHANNELS 3 Zrotation Xrotation Yrotation
      JOINT RightShoulder
      {
        OFFSET -8.99 -0.362252 -0.22
        CHANNELS 3 Zrotation Xrotation Yrotation
        JOINT RightArm
        {
          OFFSET -10.2827 -0.00338 0.322123
          CHANNELS 3 Zrotation Xrotation Yrotation
          JOINT RightForeArm
          {
            OFFSET -26.364 0.099144 -1.42434
            CHANNELS 3 Zrotation Xrotation Yrotation
            JOINT RightHand
            {
              OFFSET -22.0324 0.085362 1.02216
              CHANNELS 3 Zrotation Xrotation Yrotation
              End Site
              {
                OFFSET -13.3284 -0.6 1.50291
              }
            }
          }
        }
      }
      JOINT LeftShoulder1
      {
        OFFSET 8.99 -0.362252 -0.22
        CHANNELS 3 Zrotation Xrotation Yrotation
        JOINT LeftArm
        {
          OFFSET 10.2827 -0.00337999 0.322123
          CHANNELS 3 Zrotation Xrotation Yrotation
          JOINT LeftForeArm
          {
            OFFSET 26.2597 0.099144 -1.42434
            CHANNELS 3 Zrotation Xrotation Yrotation
            JOINT LeftHand
            {
              OFFSET 22.0902 0.085362 1.02216
              CHANNELS 3 Zrotation Xrotation Yrotation
              End Site
              {
                OFFSET 13.419 -0.6 1.50291
              }
            }
          }
        }
      }
      JOINT Head
      {
        OFFSET 0 8.73416 0.011341
        CHANNELS 3 Zrotation Xrotation Yrotation
        End Site
        {
          OFFSET -0.29 12.7742 2.51395
        }
      }
    }
  }
  JOINT RightUpLeg
  {
    OFFSET -8.9458 -8.66707 0.101652
    CHANNELS 3 Zrotation Xrotation Yrotation
    JOINT RightLeg
    {
      OFFSET 0 -44.4227 1.3727
      CHANNELS 3 Zrotation Xrotation Yrotation
      JOINT RightFoot
      {
        OFFSET 0.253549 -42.0924 -1.46059
        CHANNELS 3 Zrotation Xrotation Yrotation
        JOINT RightToes
        {
          OFFSET 0.04 -4.41509 8.4991
          CHANNELS 3 Zrotation Xrotation Yrotation
          End Site
          {
            OFFSET -0.08 -0.137448 9.77979
          }
        }
      }
    }
  }
}
MOTION
Frames:	17
Frame Time:	0.0333333
183.127 102.749 2.77798 -5.1347 0.229816 -91.1706 -0.0142505 6.61909 3.37269 0.668298 9.35933 19.7999 -3.45575 -13.7875 -0.119649 -1.32105e-009 8.75254e-006 -1.48107e-008 1.43792 6.33541 0.175704 -1.53399 -0.868266 0.612729 37.6402 1.72733 -0.028141 40.8663 -19.6711 3.51542 7.56575 35.1572 9.40072 -7.86097 9.63892 -1.23505 -44.0761 3.47771 -3.35523 -28.0862 -13.1756 5.11213 -3.67241 32.9172 -16.0133 5.82328 9.61819 -0.917488 0.48839 -3.16105 -5.04059 -0.899243 5.77995 -4.74628 -0.26001 10.2252 -9.94271 4.07424 -14.4501 0.025377 0.0462048 0.000530889 0.662642 
183.11 102.758 2.77922 -5.10329 0.228453 -91.1944 0.0370085 6.6669 3.48398 0.553525 9.22321 19.7212 -3.35071 -13.7552 -0.113109 -1.32105e-009 8.75254e-006 -1.48107e-008 1.36892 6.36815 0.175273 -1.48362 -0.884219 0.599406 37.6983 1.72733 -0.028141 40.8148 -19.6601 3.54536 7.50624 35.2474 9.46 -7.57912 9.64832 -1.22328 -44.1398 3.48296 -3.35585 -28.0406 -13.0053 5.18017 -3.60618 32.7394 -16.1385 5.82328 9.61819 -0.917488 -0.460211 -7.3876 -4.27678 -0.900952 5.77888 -4.73904 -0.259811 10.1794 -9.92096 4.08571 -14.4138 0.0253728 0.0462048 0.000530889 0.662642 
183.077 102.766 2.78629 -5.03181 0.225693 -91.2338 0.106778 6.68767 3.63763 0.390088 9.07574 19.6139 -3.21685 -13.7258 -0.105363 -1.32105e-009 8.75254e-006 -1.48107e-008 1.18324 6.50053 0.219477 -1.26955 -1.02522 0.595904 37.6104 1.72733 -0.028141 40.8719 -19.6461 3.5313 7.51191 35.0409 9.49766 -7.42417 9.6612 -1.35447 -44.3464 3.50092 -3.36035 -27.9072 -12.7628 5.26775 -3.53949 32.5297 -16.2772 5.82328 9.61819 -0.917488 -0.37925 -6.94178 -4.32181 -0.898121 5.75406 -4.7023 -0.279061 10.1035 -9.92835 4.05613 -14.3864 0.0253697 0.0462048 0.000530889 0.662642 
183.035 102.769 2.80246 -4.95937 0.247681 -91.2918 0.151767 6.65019 3.72178 0.316062 9.0626 19.5909 -3.17984 -13.748 -0.101296 -1.32105e-009 8.75254e-006 -1.48107e-008 1.00457 6.59121 0.298914 -0.995034 -1.11756 0.614952 37.3962 1.72733 -0.0276258 41.035 -19.8224 3.54678 7.56746 34.9734 9.40615 -7.44788 9.67405 -1.60081 -44.6473 3.5295 -3.37169 -27.6775 -12.6771 5.28038 -3.56545 32.4191 -16.2804 5.82328 9.61819 -0.917488 0.405138 -6.40882 -4.1374 -0.857036 5.74137 -4.62687 -0.31775 9.99582 -9.98287 4.05109 -14.3938 0.0253706 0.0462048 0.000530889 0.662642 
182.976 102.769 2.83028 -4.91366 0.290704 -91.387 0.16065 6.64966 3.73599 0.325181 9.06449 19.6704 -3.20786 -13.7903 -0.0980182 -1.32105e-009 8.75254e-006 -1.48107e-008 0.954809 6.51542 0.364364 -0.850877 -0.992505 0.648334 37.2542 1.72758 -0.0258599 41.16 -20.0684 3.64509 7.60888 35.1524 9.26395 -7.55339 9.68713 -1.89274 -44.8845 3.55394 -3.38415 -27.4282 -12.8651 5.20192 -3.65676 32.4543 -16.158 5.82328 9.61819 -0.917488 0.93367 -6.00224 -4.22194 -0.818118 5.75787 -4.57347 -0.341032 9.89903 -9.97578 4.08976 -14.3864 0.0253697 0.0462048 0.000530889 0.662642 
182.901 102.767 2.86956 -4.86516 0.303771 -91.4986 0.113609 6.71236 3.70113 0.345651 8.95238 19.8164 -3.21602 -13.7959 -0.095454 -1.32105e-009 8.75254e-006 -1.48107e-008 0.964762 6.36233 0.392968 -0.824472 -0.801372 0.673549 37.2201 1.72881 -0.0225223 41.1791 -20.0201 3.70587 7.64708 34.9963 9.24474 -7.81115 9.69819 -2.21371 -44.9964 3.56738 -3.39365 -27.2523 -13.1769 5.09959 -3.7334 32.6141 -16.0141 5.82328 9.61819 -0.917488 0.437855 -6.0277 -4.60672 -0.860668 5.73845 -4.61503 -0.319769 9.90405 -9.82092 4.08062 -14.3698 0.0253678 0.0462048 0.000530889 0.662642 
182.819 102.763 2.91464 -4.78342 0.264365 -91.5587 0.0108778 6.74085 3.61704 0.367355 8.82403 19.973 -3.20282 -13.7762 -0.0935589 -1.32105e-009 8.75254e-006 -1.48107e-008 0.898259 6.2699 0.394239 -0.763667 -0.738071 0.666589 37.169 1.72904 -0.0131036 41.1652 -19.665 3.65393 7.68822 34.4368 9.36556 -8.09531 9.70143 -2.39748 -45.0674 3.57892 -3.40545 -27.174 -13.3304 5.01962 -3.76522 32.7759 -15.9324 5.82328 9.61819 -0.917488 -0.567811 -6.16102 -4.87567 -0.972165 5.65741 -4.71212 -0.283849 9.9897 -9.64065 4.04564 -14.4163 0.0266311 0.0462048 0.000530889 0.662642 
182.739 102.753 2.95716 -4.70415 0.21999 -91.5314 -0.0899627 6.70167 3.51895 0.413049 8.81913 20.0612 -3.2091 -13.7916 -0.0923064 -1.32105e-009 8.75254e-006 -1.48107e-008 0.790636 6.20433 0.378256 -0.671426 -0.674314 0.632326 37.0792 1.72537 -0.0143709 41.214 -19.4073 3.62729 7.65615 34.2741 9.49237 -8.01684 9.68804 -2.13569 -45.0954 3.58641 -3.41575 -27.2246 -13.2874 4.91173 -3.77275 32.8447 -15.9146 5.82328 9.61819 -0.917488 -1.08913 -6.08953 -4.83355 -1.03951 5.60824 -4.74528 -0.296887 10.021 -9.64007 4.11571 -14.5086 0.0331149 0.0462048 0.000530889 0.662642 
182.654 102.738 2.99236 -4.67137 0.213535 -91.4734 -0.134007 6.68193 3.468 0.457425 8.8858 20.0585 -3.21727 -13.8587 -0.0916521 -1.32105e-009 8.75254e-006 -1.48107e-008 0.781257 6.06859 0.357734 -0.69483 -0.41279 0.615039 37.0708 1.71594 -0.0354699 41.2944 -19.4391 3.73148 7.50754 34.8331 9.57707 -7.52038 9.66177 -1.41968 -44.9346 3.56774 -3.40342 -27.4651 -13.29 4.72291 -3.78305 32.8774 -15.8964 5.82328 9.61819 -0.917488 -0.970824 -5.99071 -4.75431 -1.01081 5.64883 -4.68328 -0.370037 9.97243 -9.80405 4.23282 -14.5441 0.0413511 0.0462048 0.000530889 0.662642 
182.563 102.729 3.02249 -4.6575 0.234082 -91.4708 -0.134157 6.71323 3.4713 0.461834 8.9127 20.053 -3.18797 -13.9349 -0.0915287 -1.32105e-009 8.75254e-006 -1.48107e-008 0.89098 5.92527 0.350974 -0.869581 -0.115711 0.645902 37.208 1.71787 -0.0424063 41.2497 -19.4733 3.82986 7.36582 35.3022 9.66822 -7.09017 9.64079 -0.750109 -44.5977 3.52242 -3.36522 -27.8048 -13.454 4.53376 -3.80196 32.9536 -15.8428 5.82328 9.61819 -0.917488 -0.735229 -6.12482 -4.8398 -0.961402 5.68598 -4.61111 -0.443567 9.97894 -9.9093 4.2349 -14.5345 0.0411784 0.0462048 0.000530889 0.662642 
182.476 102.726 3.0545 -4.61356 0.260115 -91.5279 -0.12308 6.72988 3.49566 0.431743 8.90532 20.1018 -3.14197 -13.9836 -0.0918714 -1.32105e-009 8.75254e-006 -1.48107e-008 1.03273 5.94318 0.345414 -1.08981 -0.131654 0.687337 37.4378 1.74112 -0.00802922 40.987 -19.3199 3.78815 7.39763 35.1104 9.69251 -7.06426 9.63396 -0.595117 -44.3633 3.48893 -3.33442 -27.9711 -13.5639 4.51679 -3.77523 32.9924 -15.8519 5.82328 9.61819 -0.917488 -0.668451 -6.3539 -4.89889 -0.959183 5.63456 -4.58613 -0.469158 10.0954 -9.85254 4.23195 -14.5815 0.0424873 0.0462048 0.000530889 0.662642 
182.397 102.723 3.09454 -4.53972 0.289367 -91.57 -0.100503 6.70935 3.53133 0.387205 8.89849 20.1236 -3.13068 -14.0159 -0.0926342 -1.32105e-009 8.75254e-006 -1.48107e-008 1.15257 6.14669 0.300575 -1.26973 -0.506138 0.673989 37.6611 1.76485 0.0276228 40.6746 -19.2458 3.69675 7.54196 34.9547 9.54454 -7.17168 9.63765 -0.747811 -44.3981 3.49281 -3.33685 -27.8599 -13.4342 4.73698 -3.62444 32.8981 -16.0497 5.82328 9.61819 -0.917488 -0.735655 -6.49647 -4.79809 -0.978117 5.55803 -4.58357 -0.461235 10.1883 -9.77479 4.39837 -14.6468 0.0548533 0.0462048 0.000530889 0.662642 
182.303 102.72 3.14475 -4.43881 0.308064 -91.5613 -0.0807862 6.6745 3.56374 0.335634 8.876 20.0764 -3.15281 -14.064 -0.0937793 -1.32105e-009 8.75254e-006 -1.48107e-008 1.23308 6.35206 0.224609 -1.37475 -0.952674 0.61157 37.7544 1.76262 0.0147257 40.5858 -19.4623 3.6373 7.55643 35.5224 9.37291 -7.02821 9.64179 -0.715734 -44.5093 3.51227 -3.35849 -27.7259 -13.2278 5.05408 -3.40956 32.769 -16.3334 5.82328 9.61819 -0.917488 -0.959707 -6.68565 -4.74862 -0.990383 5.52114 -4.58886 -0.448929 10.1605 -9.80014 4.53572 -14.6249 0.0626624 0.0462048 0.000530889 0.662642 
182.176 102.714 3.20446 -4.2969 0.293923 -91.5576 -0.111117 6.63008 3.55712 0.28872 8.81902 20.0798 -3.13969 -14.1195 -0.0952532 -1.32105e-009 8.75254e-006 -1.48107e-008 1.24273 6.3992 0.190614 -1.37278 -1.22091 0.575561 37.6253 1.74161 -0.0224377 40.7724 -19.7596 3.53862 7.37351 36.2419 9.41855 -6.77399 9.64406 -0.554399 -44.4978 3.51798 -3.37132 -27.7753 -13.1495 5.25586 -3.35416 32.6902 -16.4183 5.82328 9.61819 -0.917488 -1.07971 -6.80525 -4.83766 -1.03457 5.47336 -4.6278 -0.433241 10.105 -9.83314 4.45316 -14.603 0.0567932 0.0462048 0.000530889 0.662642 
182.037 102.708 3.27129 -4.17543 0.251295 -91.6022 -0.191718 6.65331 3.53894 0.237013 8.6873 20.1738 -3.03677 -14.135 -0.0969852 -1.32105e-009 8.75254e-006 -1.48107e-008 1.16205 6.3481 0.227363 -1.27071 -1.25552 0.594268 37.3875 1.73337 -0.0215816 40.9628 -19.7979 3.42626 7.24782 36.1475 9.59028 -6.90492 9.64947 -0.739456 -44.4666 3.51754 -3.37507 -27.8639 -13.1014 5.27064 -3.5304 32.5226 -16.265 5.82328 9.61819 -0.917488 -0.58604 -6.41267 -4.8167 -1.14352 5.41201 -4.7086 -0.413776 10.1333 -9.72782 4.44712 -14.7132 0.060142 0.0462048 0.000530889 0.662642 
181.92 102.701 3.34293 -4.17379 0.196679 -91.6256 -0.257583 6.82447 3.58903 0.132288 8.50153 20.1676 -2.92367 -14.1565 -0.0984955 -1.32105e-009 8.75254e-006 -1.48107e-008 1.00016 6.35178 0.258496 -1.11744 -1.10396 0.596424 37.2747 1.74973 0.0254045 40.952 -19.5659 3.50611 7.40068 35.378 9.57436 -7.60888 9.65044 -1.27553 -44.5662 3.53006 -3.38475 -27.8152 -12.9087 5.19843 -3.66668 32.2063 -16.2031 5.82328 9.61819 -0.917488 -0.374529 -6.19575 -4.67683 -1.29002 5.44865 -4.82708 -0.397223 10.207 -9.53462 4.67842 -14.8441 0.0792341 0.0462048 0.000530889 0.662642 
181.832 102.671 3.43029 -4.22444 0.144259 -91.5118 -0.275469 6.86677 3.66101 -0.00202568 8.66102 19.9641 -3.01464 -14.4369 -0.109203 -1.32105e-009 8.75254e-006 -1.48107e-008 0.832524 6.43997 0.20581 -0.962532 -0.922542 0.519171 37.3053 1.76518 0.0583975 40.8913 -19.3114 3.79702 7.64118 34.8542 9.39799 -8.41672 9.64173 -1.59639 -44.7072 3.54642 -3.39574 -27.7364 -12.6494 5.13804 -3.52717 32.0217 -16.4238 5.82328 9.61819 -0.917488 0.0141375 -5.793 -4.44238 -1.44326 5.53886 -5.01199 -0.3393 10.2944 -9.41525 4.70862 -14.9135 0.0835755 0.0462048 0.000530889 0.662642 
